<svg xmlns="http://www.w3.org/2000/svg" version="1.1" xmlns:xlink="http://www.w3.org/1999/xlink" xmlns:svgjs="http://svgjs.dev/svgjs" width="1500" height="1500" viewBox="0 0 1500 1500"><rect width="1500" height="1500" fill="#000000"></rect><g transform="matrix(0.6666666666666666,0,0,0.6666666666666666,249.39393939393938,525.7204446241602)"><svg viewBox="0 0 396 177" data-background-color="#000000" preserveAspectRatio="xMidYMid meet" height="670" width="1500" xmlns="http://www.w3.org/2000/svg" xmlns:xlink="http://www.w3.org/1999/xlink"><g id="tight-bounds" transform="matrix(1,0,0,1,0.2400000000000091,0.3749581377394975)"><svg viewBox="0 0 395.52 176.250083724521" height="176.250083724521" width="395.52"><g><svg viewBox="0 0 557.5112626532571 248.43599999999995" height="176.250083724521" width="395.52"><g><rect width="22.292751110399998" height="248.43599999999995" x="245.52370148571427" y="0" fill="#ffffff" opacity="1" stroke-width="0" stroke="transparent" fill-opacity="1" class="rect-yte-0" data-fill-palette-color="primary" rx="1%" id="yte-0" data-palette-color="#000000"></rect></g><g transform="matrix(1,0,0,1,0,0.6179999999999808)"><svg viewBox="0 0 187.16571428571427 247.2" height="247.2" width="187.16571428571427"><g id="textblocktransform"><svg viewBox="0 0 187.16571428571427 247.2" height="247.2" width="187.16571428571427" id="textblock"><g><svg viewBox="0 0 187.16571428571427 247.2" height="247.2" width="187.16571428571427"><g transform="matrix(1,0,0,1,0,0)"><svg width="187.16571428571427" viewBox="2.25 -35 26.5 35" height="247.2" data-palette-color="#000000"><path d="M28.75-2.55L28.75 0 2.25 0 2.25-1 24.55-34Q23.75-34 20.9-33.8L20.9-33.8 3.55-32.55 3.55-35 28.55-35 28.55-34 6.25-1Q7.1-1 9.9-1.2L9.9-1.2 28.75-2.55Z" opacity="1" transform="matrix(1,0,0,1,0,0)" fill="#ffffff" class="wordmark-text-0" data-fill-palette-color="primary" id="text-0"></path></svg></g></svg></g></svg></g></svg></g><g transform="matrix(1,0,0,1,326.17443979611426,8.549588571428558)"><svg viewBox="0 0 231.33682285714283 231.33682285714283" height="231.33682285714283" width="231.33682285714283"><g><svg xmlns="http://www.w3.org/2000/svg" xmlns:xlink="http://www.w3.org/1999/xlink" version="1.1" x="0" y="0" viewBox="2 2 60 60" style="enable-background:new 0 0 64 64;" xml:space="preserve" height="231.33682285714283" width="231.33682285714283" class="icon-icon-0" data-fill-palette-color="accent" id="icon-0"></svg></g></svg></g></svg></g><defs></defs><mask id="6ede9f70-89ea-4b26-8a3f-1fb194a3477b"><g id="SvgjsG1309"><svg viewBox="0 0 395.52 176.250083724521" height="176.250083724521" width="395.52"><g><svg viewBox="0 0 557.5112626532571 248.43599999999995" height="176.250083724521" width="395.52"><g><rect width="22.292751110399998" height="248.43599999999995" x="245.52370148571427" y="0" fill="black" opacity="1" stroke-width="0" stroke="transparent" fill-opacity="1" class="rect-yte-0" rx="1%" id="SvgjsRect1308" data-palette-color="#000000"></rect></g><g transform="matrix(1,0,0,1,0,0.6179999999999808)"><svg viewBox="0 0 187.16571428571427 247.2" height="247.2" width="187.16571428571427"><g id="SvgjsG1307"><svg viewBox="0 0 187.16571428571427 247.2" height="247.2" width="187.16571428571427" id="SvgjsSvg1306"><g><svg viewBox="0 0 187.16571428571427 247.2" height="247.2" width="187.16571428571427"><g transform="matrix(1,0,0,1,0,0)"><svg width="187.16571428571427" viewBox="2.25 -35 26.5 35" height="247.2" data-palette-color="#000000"><path d="M28.75-2.55L28.75 0 2.25 0 2.25-1 24.55-34Q23.75-34 20.9-33.8L20.9-33.8 3.55-32.55 3.55-35 28.55-35 28.55-34 6.25-1Q7.1-1 9.9-1.2L9.9-1.2 28.75-2.55Z" opacity="1" transform="matrix(1,0,0,1,0,0)" fill="black" class="wordmark-text-0" id="SvgjsPath1305"></path></svg></g></svg></g></svg></g></svg></g><g transform="matrix(1,0,0,1,326.17443979611426,8.549588571428558)"><svg viewBox="0 0 231.33682285714283 231.33682285714283" height="231.33682285714283" width="231.33682285714283"><g><svg xmlns="http://www.w3.org/2000/svg" xmlns:xlink="http://www.w3.org/1999/xlink" version="1.1" x="0" y="0" viewBox="2 2 60 60" style="enable-background:new 0 0 64 64;" xml:space="preserve" height="231.33682285714283" width="231.33682285714283" class="icon-icon-0" data-fill-palette-color="accent" id="SvgjsSvg1304"><rect x="2" y="2" width="2" height="2" fill="white"></rect><rect x="6" y="2" width="2" height="2" fill="white"></rect><rect x="8" y="10" width="2" height="2" fill="white"></rect><rect x="12" y="10" width="2" height="2" fill="white"></rect><rect x="10" y="6" width="3" height="2" fill="white"></rect><rect x="10" y="2" width="5" height="2" fill="white"></rect><rect x="2" y="6" width="6" height="2" fill="white"></rect><rect x="2" y="10" width="4" height="2" fill="white"></rect><rect x="9" y="28" width="2" height="2" fill="white"></rect><rect x="7" y="20" width="2" height="2" fill="white"></rect><rect x="3" y="20" width="2" height="2" fill="white"></rect><rect x="4" y="24" width="3" height="2" fill="white"></rect><rect x="2" y="28" width="5" height="2" fill="white"></rect><rect x="9" y="24" width="3" height="2" fill="white"></rect><rect x="11" y="20" width="3" height="2" fill="white"></rect><rect x="49" y="2" width="2" height="2" fill="white"></rect><rect x="53" y="2" width="2" height="2" fill="white"></rect><rect x="56" y="10" width="2" height="2" fill="white"></rect><rect x="60" y="10" width="2" height="2" fill="white"></rect><rect x="57" y="6" width="3" height="2" fill="white"></rect><rect x="57" y="2" width="5" height="2" fill="white"></rect><rect x="49" y="6" width="6" height="2" fill="white"></rect><rect x="51" y="10" width="3" height="2" fill="white"></rect><rect x="60" y="28" width="2" height="2" fill="white"></rect><rect x="55" y="20" width="2" height="2" fill="white"></rect><rect x="51" y="20" width="2" height="2" fill="white"></rect><rect x="52" y="24" width="3" height="2" fill="white"></rect><rect x="53" y="28" width="5" height="2" fill="white"></rect><rect x="57" y="24" width="3" height="2" fill="white"></rect><rect x="59" y="20" width="3" height="2" fill="white"></rect><rect x="2" y="39" width="2" height="2" fill="white"></rect><rect x="6" y="39" width="2" height="2" fill="white"></rect><rect x="8" y="47" width="2" height="2" fill="white"></rect><rect x="15" y="43" width="2" height="2" fill="white"></rect><rect x="10" y="43" width="3" height="2" fill="white"></rect><rect x="10" y="39" width="5" height="2" fill="white"></rect><rect x="2" y="43" width="6" height="2" fill="white"></rect><rect x="2" y="47" width="4" height="2" fill="white"></rect><path d="M61 41H51A1 1 0 0 0 50.292 41.294L44.295 47.291A1 1 0 0 0 44.007 47.966L40 46.328V41.414L45.707 35.707A1 1 0 0 0 46 35V31.949C48.244 31.697 50 29.81 50 27.5 50 25.586 48.793 23.958 47.105 23.309L47.707 22.707A1 1 0 0 0 48 22V15C48 10.037 43.963 6 39 6H38.92C37.5 3.551 34.851 2 32 2H25A1 1 0 0 0 24 3C24 4.042 24.2 5.06 24.588 6.01 19.816 6.226 16 10.176 16 15V22C16 22.266 16.105 22.52 16.293 22.707L16.895 23.309C15.207 23.958 14 25.586 14 27.5 14 29.81 15.756 31.697 18 31.949V35C18 35.266 18.105 35.52 18.293 35.707L24 41.414V46.328L2.621 55.074C2.245 55.229 2 55.594 2 56V61A1 1 0 0 0 3 62H61A1 1 0 0 0 62 61V42A1 1 0 0 0 61 41M48 27.5C48 28.707 47.14 29.718 46 29.95V25.05C47.14 25.282 48 26.293 48 27.5M18 29.95C16.86 29.718 16 28.707 16 27.5S16.86 25.282 18 25.05zM18 21.586V15C18 11.141 21.141 8 25 8H26.26A1.001 1.001 0 0 0 27.081 6.428 5.95 5.95 0 0 1 26.084 4H32A6.03 6.03 0 0 1 37.414 7.43C37.58 7.778 37.932 8 38.317 8H39C42.859 8 46 11.141 46 15V21.586L45 22.586 44 21.586V15A1 1 0 0 0 42.909 14.004L32 14.996 21.091 14.004A1.003 1.003 0 0 0 20 15V21.586L19 22.586zM20 34.586V24.414L21.707 22.707A1 1 0 0 0 22 22V16.095L31.909 16.996A1 1 0 0 0 32.091 16.996L42 16.095V22C42 22.266 42.105 22.52 42.293 22.707L44 24.414V34.586L35.586 43H28.414zM38 43.414V46.485L32 50.771 26 46.485V43.414L27.293 44.707A1 1 0 0 0 28 45H36C36.266 45 36.52 44.895 36.707 44.707zM44 60H4V56.671L24.868 48.135 31.419 52.814A1 1 0 0 0 32.581 52.813L39.132 48.134 44 50.126zM50 44.414V47H47.414zM60 60H46V49H51A1 1 0 0 0 52 48V43H60z" fill="white"></path><rect x="48" y="51" width="2" height="2" fill="white"></rect><rect x="52" y="51" width="2" height="2" fill="white"></rect><rect x="56" y="51" width="2" height="2" fill="white"></rect><rect x="48" y="55" width="4" height="2" fill="white"></rect><rect x="54" y="55" width="4" height="2" fill="white"></rect><rect x="54" y="47" width="4" height="2" fill="white"></rect><rect x="31" y="55" width="2" height="2" fill="white"></rect><path d="M25.414 27L27.707 24.707 26.293 23.293 23.293 26.293A1 1 0 0 0 23.293 27.707L26.293 30.707 27.707 29.293z" fill="white"></path><path d="M37.707 30.707L40.707 27.707A1 1 0 0 0 40.707 26.293L37.707 23.293 36.293 24.707 38.586 27 36.293 29.293z" fill="white"></path><rect x="27.528" y="26" transform="matrix(0.4472 -0.8944 0.8944 0.4472 -6.4604 43.5469)" width="8.944" height="2" fill="white"></rect><rect x="31" y="34" width="2" height="2" fill="white"></rect><rect x="35" y="34" width="2" height="2" fill="white"></rect><rect x="27" y="34" width="2" height="2" fill="white"></rect></svg></g></svg></g></svg></g><defs><mask></mask></defs></svg><rect width="395.52" height="176.250083724521" fill="black" stroke="none" visibility="hidden"></rect></g></mask><linearGradient x1="0.054" x2="0.941" y1="0.5" y2="0.5" id="3ce5ded4-b498-4226-8654-9b8c19528594"><stop stop-color="#8c8c8c" offset="0"></stop><stop stop-color="#e3e4e5" offset="0.498"></stop><stop stop-color="#8c8c8c" offset="1"></stop></linearGradient><rect width="395.52" height="176.250083724521" fill="#ffffff" mask="url(#6ede9f70-89ea-4b26-8a3f-1fb194a3477b)" data-fill-palette-color="accent"></rect></svg><rect width="395.52" height="176.250083724521" fill="none" stroke="none" visibility="hidden"></rect></g></svg></g></svg>